<svg width="413" height="515" viewBox="0 0 413 515" fill="none" xmlns="http://www.w3.org/2000/svg">
<path d="M143.49 400C140.862 400 138.235 399.133 135.608 398.267C129.477 394.8 125.098 388.733 125.098 381.8L125.098 287.335C125.098 283.002 126.849 278.669 129.477 275.202L260.849 132.205C267.856 124.405 279.241 124.405 287.124 131.338C295.006 138.271 295.006 149.538 287.999 157.338L161.882 294.268L161.882 345.401L235.451 290.802C240.705 287.335 247.712 286.469 252.967 288.202L299.385 306.402L338.797 50.7394L76.0521 195.47L118.091 219.736C126.849 224.936 129.477 236.203 124.222 244.869C118.967 253.536 107.581 256.136 98.8233 250.936L28.7581 210.203C22.6274 206.737 20 200.67 20 194.604C20 187.67 23.5032 182.47 29.6339 179.004L353.686 2.2069C359.816 -1.25971 367.699 -0.393055 372.954 3.07355C379.084 7.40681 381.712 13.4734 380.836 20.4066L331.79 335.001C330.914 340.201 327.411 345.401 323.032 348.001C318.653 350.601 312.522 351.467 307.267 348.868L248.588 325.468L154 395.667C151.372 398.267 147.869 400 143.49 400Z" fill="white"/>
<path d="M18.1023 492H2.28409L26.3864 422.182H45.4091L69.4773 492H53.6591L36.1705 438.136H35.625L18.1023 492ZM17.1136 464.557H54.4773V476.08H17.1136V464.557ZM92.1096 461.727V492H77.5868V439.636H91.4277V448.875H92.0414C93.2005 445.83 95.1437 443.42 97.8709 441.648C100.598 439.852 103.905 438.955 107.791 438.955C111.428 438.955 114.598 439.75 117.303 441.341C120.007 442.932 122.11 445.205 123.61 448.159C125.11 451.091 125.86 454.591 125.86 458.659V492H111.337V461.25C111.36 458.045 110.541 455.545 108.882 453.75C107.223 451.932 104.939 451.023 102.03 451.023C100.075 451.023 98.3482 451.443 96.8482 452.284C95.3709 453.125 94.2118 454.352 93.3709 455.966C92.5527 457.557 92.1323 459.477 92.1096 461.727ZM144.375 511.636C142.534 511.636 140.807 511.489 139.194 511.193C137.603 510.92 136.284 510.568 135.239 510.136L138.512 499.295C140.216 499.818 141.75 500.102 143.114 500.148C144.5 500.193 145.694 499.875 146.694 499.193C147.716 498.511 148.546 497.352 149.182 495.716L150.034 493.5L131.25 439.636H146.523L157.364 478.091H157.909L168.853 439.636H184.228L163.875 497.659C162.898 500.477 161.569 502.932 159.887 505.023C158.228 507.136 156.125 508.761 153.58 509.898C151.034 511.057 147.966 511.636 144.375 511.636ZM216.661 492H191.911V422.182H216.866C223.888 422.182 229.934 423.58 235.002 426.375C240.07 429.148 243.968 433.136 246.695 438.341C249.445 443.545 250.82 449.773 250.82 457.023C250.82 464.295 249.445 470.545 246.695 475.773C243.968 481 240.047 485.011 234.934 487.807C229.843 490.602 223.752 492 216.661 492ZM206.672 479.352H216.047C220.411 479.352 224.082 478.58 227.059 477.034C230.059 475.466 232.309 473.045 233.809 469.773C235.332 466.477 236.093 462.227 236.093 457.023C236.093 451.864 235.332 447.648 233.809 444.375C232.309 441.102 230.07 438.693 227.093 437.148C224.116 435.602 220.445 434.83 216.082 434.83H206.672V479.352ZM261.461 492V439.636H275.541V448.773H276.086C277.041 445.523 278.643 443.068 280.893 441.409C283.143 439.727 285.734 438.886 288.666 438.886C289.393 438.886 290.177 438.932 291.018 439.023C291.859 439.114 292.597 439.239 293.234 439.398V452.284C292.552 452.08 291.609 451.898 290.404 451.739C289.2 451.58 288.097 451.5 287.097 451.5C284.961 451.5 283.052 451.966 281.37 452.898C279.711 453.807 278.393 455.08 277.416 456.716C276.461 458.352 275.984 460.239 275.984 462.375V492H261.461ZM321.943 493.023C316.647 493.023 312.068 491.898 308.204 489.648C304.363 487.375 301.397 484.216 299.306 480.17C297.215 476.102 296.17 471.386 296.17 466.023C296.17 460.614 297.215 455.886 299.306 451.841C301.397 447.773 304.363 444.614 308.204 442.364C312.068 440.091 316.647 438.955 321.943 438.955C327.238 438.955 331.806 440.091 335.647 442.364C339.511 444.614 342.488 447.773 344.579 451.841C346.67 455.886 347.715 460.614 347.715 466.023C347.715 471.386 346.67 476.102 344.579 480.17C342.488 484.216 339.511 487.375 335.647 489.648C331.806 491.898 327.238 493.023 321.943 493.023ZM322.011 481.773C324.42 481.773 326.431 481.091 328.045 479.727C329.659 478.341 330.875 476.455 331.693 474.068C332.534 471.682 332.954 468.966 332.954 465.92C332.954 462.875 332.534 460.159 331.693 457.773C330.875 455.386 329.659 453.5 328.045 452.114C326.431 450.727 324.42 450.034 322.011 450.034C319.579 450.034 317.534 450.727 315.875 452.114C314.238 453.5 313 455.386 312.159 457.773C311.34 460.159 310.931 462.875 310.931 465.92C310.931 468.966 311.34 471.682 312.159 474.068C313 476.455 314.238 478.341 315.875 479.727C317.534 481.091 319.579 481.773 322.011 481.773ZM357.137 511.636V439.636H371.456V448.432H372.103C372.74 447.023 373.66 445.591 374.865 444.136C376.092 442.659 377.683 441.432 379.637 440.455C381.615 439.455 384.069 438.955 387.001 438.955C390.819 438.955 394.342 439.955 397.569 441.955C400.797 443.932 403.376 446.92 405.308 450.92C407.24 454.898 408.206 459.886 408.206 465.886C408.206 471.727 407.262 476.659 405.376 480.682C403.512 484.682 400.967 487.716 397.74 489.784C394.535 491.83 390.944 492.852 386.967 492.852C384.149 492.852 381.751 492.386 379.774 491.455C377.819 490.523 376.217 489.352 374.967 487.943C373.717 486.511 372.762 485.068 372.103 483.614H371.66V511.636H357.137ZM371.353 465.818C371.353 468.932 371.785 471.648 372.649 473.966C373.512 476.284 374.762 478.091 376.399 479.386C378.035 480.659 380.024 481.295 382.365 481.295C384.728 481.295 386.728 480.648 388.365 479.352C390.001 478.034 391.24 476.216 392.081 473.898C392.944 471.557 393.376 468.864 393.376 465.818C393.376 462.795 392.956 460.136 392.115 457.841C391.274 455.545 390.035 453.75 388.399 452.455C386.762 451.159 384.751 450.511 382.365 450.511C380.001 450.511 378.001 451.136 376.365 452.386C374.751 453.636 373.512 455.409 372.649 457.705C371.785 460 371.353 462.705 371.353 465.818Z" fill="white"/>
</svg>
